<svg xmlns="http://www.w3.org/2000/svg" xmlns:xlink="http://www.w3.org/1999/xlink" version="1.1" width="321px" height="361px" viewBox="-0.5 -0.5 321 361"><defs/><g><rect x="240" y="320" width="40" height="40" fill="#dae8fc" stroke="#6c8ebf" pointer-events="none"/><rect x="280" y="240" width="40" height="40" fill="#dae8fc" stroke="#6c8ebf" pointer-events="none"/><rect x="280" y="280" width="40" height="40" fill="#dae8fc" stroke="#6c8ebf" pointer-events="none"/><rect x="280" y="320" width="40" height="40" fill="#dae8fc" stroke="#6c8ebf" pointer-events="none"/><rect x="160" y="280" width="40" height="40" fill="#cce5ff" stroke="#99ccff" pointer-events="none"/><rect x="160" y="240" width="40" height="40" fill="#cce5ff" stroke="#99ccff" pointer-events="none"/><rect x="200" y="200" width="40" height="40" fill="#cce5ff" stroke="#99ccff" pointer-events="none"/><rect x="160" y="320" width="40" height="40" fill="#cce5ff" stroke="#99ccff" pointer-events="none"/><rect x="160" y="200" width="40" height="40" fill="#cce5ff" stroke="#99ccff" pointer-events="none"/><rect x="0" y="280" width="40" height="40" fill="#ffe6cc" stroke="#d79b00" pointer-events="none"/><rect x="40" y="320" width="40" height="40" fill="#ffe6cc" stroke="#d79b00" pointer-events="none"/><rect x="0" y="320" width="40" height="40" fill="#ffe6cc" stroke="#d79b00" pointer-events="none"/><rect x="80" y="320" width="40" height="40" fill="#ffe6cc" stroke="#d79b00" pointer-events="none"/><rect x="40" y="280" width="40" height="40" fill="#ffe6cc" stroke="#d79b00" pointer-events="none"/><rect x="40" y="160" width="40" height="40" fill="#f8cecc" stroke="#b85450" pointer-events="none"/><rect x="0" y="160" width="40" height="40" fill="#f8cecc" stroke="#b85450" pointer-events="none"/><rect x="40" y="200" width="40" height="40" fill="#f8cecc" stroke="#b85450" pointer-events="none"/><rect x="80" y="200" width="40" height="40" fill="#f8cecc" stroke="#b85450" pointer-events="none"/><rect x="240" y="120" width="40" height="40" fill="#ccccff" stroke="#9999ff" pointer-events="none"/><rect x="280" y="120" width="40" height="40" fill="#ccccff" stroke="#9999ff" pointer-events="none"/><rect x="280" y="80" width="40" height="40" fill="#ccccff" stroke="#9999ff" pointer-events="none"/><rect x="280" y="160" width="40" height="40" fill="#ccccff" stroke="#9999ff" pointer-events="none"/><rect x="40" y="80" width="40" height="40" fill="#e1d5e7" stroke="#9673a6" pointer-events="none"/><rect x="80" y="80" width="40" height="40" fill="#e1d5e7" stroke="#9673a6" pointer-events="none"/><rect x="120" y="80" width="40" height="40" fill="#e1d5e7" stroke="#9673a6" pointer-events="none"/><rect x="120" y="120" width="40" height="40" fill="#e1d5e7" stroke="#9673a6" pointer-events="none"/><rect x="160" y="120" width="40" height="40" fill="#e1d5e7" stroke="#9673a6" pointer-events="none"/><rect x="200" y="0" width="40" height="40" fill="#d5e8d4" stroke="#82b366" pointer-events="none"/><rect x="280" y="0" width="40" height="40" fill="#d5e8d4" stroke="#82b366" pointer-events="none"/><rect x="240" y="0" width="40" height="40" fill="#d5e8d4" stroke="#82b366" pointer-events="none"/><rect x="200" y="40" width="40" height="40" fill="#d5e8d4" stroke="#82b366" pointer-events="none"/><rect x="160" y="0" width="40" height="40" fill="#d5e8d4" stroke="#82b366" pointer-events="none"/><rect x="80" y="0" width="40" height="40" fill="#fff2cc" stroke="#d6b656" pointer-events="none"/><rect x="0" y="0" width="40" height="40" fill="#fff2cc" stroke="#d6b656" pointer-events="none"/><rect x="40" y="0" width="40" height="40" fill="#fff2cc" stroke="#d6b656" pointer-events="none"/></g></svg>